<svg xmlns="http://www.w3.org/2000/svg" version="1.1" xmlns:xlink="http://www.w3.org/1999/xlink" xmlns:svgjs="http://svgjs.dev/svgjs" width="1000" height="1000" viewBox="0 0 1000 1000"><rect width="1000" height="1000" fill="#ffffff"></rect><g transform="matrix(0.7,0,0,0.7,149.57575757575756,430.5548454496024)"><svg viewBox="0 0 396 79" data-background-color="#ffffff" preserveAspectRatio="xMidYMid meet" height="199" width="1000" xmlns="http://www.w3.org/2000/svg" xmlns:xlink="http://www.w3.org/1999/xlink"><g id="tight-bounds" transform="matrix(1,0,0,1,0.2400000000000091,-0.1161722219568162)"><svg viewBox="0 0 395.52 79.23234444391365" height="79.23234444391365" width="395.52"><g><svg viewBox="0 0 489.7814025981114 98.11521236063084" height="79.23234444391365" width="395.52"><g transform="matrix(1,0,0,1,94.2614025981114,24.072830942059536)"><svg viewBox="0 0 395.52 49.96955047651176" height="49.96955047651176" width="395.52"><g id="textblocktransform"><svg viewBox="0 0 395.52 49.96955047651176" height="49.96955047651176" width="395.52" id="textblock"><g><svg viewBox="0 0 395.52 49.96955047651176" height="49.96955047651176" width="395.52"><g transform="matrix(1,0,0,1,0,0)"><svg width="395.52" viewBox="1.7100000381469727 -36.060001373291016 289.46002197265625 36.56999969482422" height="49.96955047651176" data-palette-color="#e8772e"><path d="M11.89 0L1.71 0 1.71-3.08 4.35-3.44 16.77-35.55 20.9-35.55 33.11-3.44 35.72-3.08 35.72 0 25.51 0 25.51-3.08 28.2-3.54 25.85-10.08 11.62-10.08 9.2-3.54 11.89-3.08 11.89 0ZM18.43-28.56L13.11-14.11 24.39-14.11 19.17-28.56 18.87-29.37 18.73-29.37 18.43-28.56ZM52.17 0L39.4 0 39.4-3.08 43.38-3.76 43.38-31.76 39.4-32.45 39.4-35.52 55.25-35.52Q59.13-35.52 61.8-34.36 64.48-33.2 65.87-31.01 67.26-28.81 67.26-25.63L67.26-25.63Q67.26-22.51 65.9-20.39 64.55-18.26 62.06-17.18 59.57-16.09 56.15-16.02L56.15-16.02 48.19-15.87 48.19-3.76 52.17-3.08 52.17 0ZM68.8 0L62.86 0 54.95-17.75 59.76-17.8 66.33-3.59 68.8-3.15 68.8 0ZM48.19-31.76L48.19-19.65 54.76-19.65Q58.79-19.65 60.62-21.19 62.45-22.73 62.45-25.68L62.45-25.68Q62.45-28.49 60.69-30.13 58.93-31.76 55.25-31.76L55.25-31.76 48.19-31.76ZM92.79 0L80.02 0 80.02-3.08 84-3.76 84-31.91 75.95-31.91 75.24-26.98 71.63-26.98 71.63-35.55 101.17-35.55 101.17-26.98 97.6-26.98 96.87-31.91 88.81-31.91 88.81-3.76 92.79-3.08 92.79 0ZM120.94 0.51L120.94 0.51Q116.01 0.51 112.39-1.77 108.78-4.05 106.83-8.11 104.88-12.16 104.88-17.48L104.88-17.48 104.88-18.07Q104.88-23.44 106.84-27.48 108.81-31.52 112.22-33.79 115.64-36.06 119.99-36.06L119.99-36.06Q124.14-36.06 127.03-35.11 129.92-34.16 131.97-32.54L131.97-32.54 131.97-25.37 128.02-25.37 127.51-30.52Q126.31-31.3 124.58-31.7 122.84-32.1 120.48-32.1L120.48-32.1Q117.42-32.1 114.98-30.35 112.54-28.59 111.13-25.45 109.71-22.31 109.71-18.12L109.71-18.12 109.71-17.48Q109.71-13.23 111.02-10.07 112.32-6.91 114.84-5.16 117.35-3.42 120.94-3.42L120.94-3.42Q123.38-3.42 125.07-3.85 126.75-4.27 128.04-4.96L128.04-4.96 128.04-13.31 121.23-13.55 121.23-17.09 132.85-17.09 132.85-3.32Q131.32-1.88 128.45-0.68 125.58 0.51 120.94 0.51ZM164.83 0L137.76 0 137.76-3.08 141.74-3.76 141.74-31.76 137.76-32.45 137.76-35.55 164.08-35.55 164.08-27 160.22-27 159.68-31.84 146.55-31.84 146.55-20.26 159.66-20.26 159.66-16.48 146.55-16.48 146.55-3.61 160.46-3.61 161-8.52 164.83-8.52 164.83 0ZM182.46 0L169.69 0 169.69-3.08 173.67-3.76 173.67-31.76 169.69-32.45 169.69-35.55 173.67-35.55 178.53-35.55 195.96-7.84 196.11-7.89 196.11-31.76 191.74-32.45 191.74-35.55 200.52-35.55 204.5-35.55 204.5-32.45 200.52-31.76 200.52 0 196.13 0 178.23-27.86 178.09-27.81 178.09-3.76 182.46-3.08 182.46 0ZM221.32 0L208.55 0 208.55-3.08 212.53-3.76 212.53-31.76 208.55-32.45 208.55-35.55 212.53-35.55 217.39-35.55 234.82-7.84 234.97-7.89 234.97-31.76 230.6-32.45 230.6-35.55 239.39-35.55 243.37-35.55 243.37-32.45 239.39-31.76 239.39 0 234.99 0 217.1-27.86 216.95-27.81 216.95-3.76 221.32-3.08 221.32 0ZM260.14 0L247.37 0 247.37-3.08 251.35-3.76 251.35-31.76 247.37-32.45 247.37-35.55 260.14-35.55 260.14-32.45 256.16-31.76 256.16-3.76 260.14-3.08 260.14 0ZM291.17 0L264.09 0 264.09-3.08 268.07-3.76 268.07-31.76 264.09-32.45 264.09-35.55 290.41-35.55 290.41-27 286.55-27 286.02-31.84 272.88-31.84 272.88-20.26 285.99-20.26 285.99-16.48 272.88-16.48 272.88-3.61 286.8-3.61 287.33-8.52 291.17-8.52 291.17 0Z" opacity="1" transform="matrix(1,0,0,1,0,0)" fill="#e8772e" class="undefined-text-0" data-fill-palette-color="primary" id="text-0"></path></svg></g></svg></g></svg></g></svg></g><g><svg viewBox="0 0 82.4647909998184 98.11521236063084" height="98.11521236063084" width="82.4647909998184"><g><svg xmlns="http://www.w3.org/2000/svg" xmlns:xlink="http://www.w3.org/1999/xlink" version="1.1" x="0" y="0" viewBox="7.97705602645874 0 84.04893493652344 100" enable-background="new 0 0 100 100" xml:space="preserve" height="98.11521236063084" width="82.4647909998184" class="icon-icon-0" data-fill-palette-color="accent" id="icon-0"><g fill="#e8772e" data-fill-palette-color="accent"><path d="M75.462 18.153L79.118 0.58 76.331 0 73.07 15.662l-3.731-0.813-0.591 2.756 3.746 0.813-8.361 40.193-4.291-0.93-1.554 7.18 4.349 0.943-6.764 32.492 2.787 0.584 3.583-17.216c1.55 0.938 4.905 2.272 11.704 2.272 6.816 0 10.175-1.349 11.718-2.287l3.56 17.229 2.801-0.577L75.462 18.153zM83.754 81.415c-1.779 0.716-4.816 1.453-9.807 1.453-4.991 0-8.035-0.737-9.807-1.453-0.82-0.326-1.328-0.625-1.666-0.86L73.995 25.17l11.446 55.385C85.102 80.79 84.58 81.089 83.754 81.415zM71.424 19.227l-2.919-0.639-8.243 38.051 2.92 0.618L71.424 19.227z" fill="#e8772e" data-fill-palette-color="accent"></path><g fill="#e8772e" data-fill-palette-color="accent"><path d="M54.553 30.98l-2.57-0.542-1.373-2.565-3.053 1.634-5.088-1.071c-0.452-0.083-0.889 0.215-0.973 0.667-0.087 0.458 0.212 0.89 0.667 0.977l3.301 0.547-7.856 4.203c0 0-15.047-2.7-15.833-2.7-2.721 0-5.042 1.671-6.029 4.034l-7.381 13.54c-0.479 0.89-0.511 1.932-0.115 2.864 0.403 0.916 1.199 1.597 2.172 1.854l20.211 5.303 1.053-3.981-0.796 4.489-7.708-1.869c-0.098 0.633 0.156 1.529 0.903 2.703 1.689 2.635 4.629 4.795 9.869 4.365 5.244-0.438 12.125-6.93 7.648-12.218-4.479-5.289-12.955-3.815-13.785-1.932-0.129 0.299-0.146 0.598-0.118 0.909l-11.593-3.043 5.119-9.511 0.021 0.014-3.93 8.969 9.483 3.267c0.011-0.326-0.104-0.652 0.032-0.951 0.293-0.538 1.17-0.927 1.17-1.247V39.91l9.454 1.561c0.185 0.031 0.452 0.048 0.632 0.048 0.535 0 1.105-0.132 1.584-0.389l14.006-7.481-0.963-1.819 1.629 0.269c1.426 4.191 7.278 0.786 7.278 0.786S57.398 27.578 54.553 30.98zM30.635 51.045c0.858-0.111 1.644 0.486 1.762 1.342 0.048 0.368-0.07 0.688-0.25 0.973l-2.832-0.743C29.308 51.837 29.85 51.156 30.635 51.045z" fill="#e8772e" data-fill-palette-color="accent"></path><path d="M34.59 76.585l-3.079-10.286c-4.048-0.313-6.668-2.369-8.18-4.754-0.706-1.119-1.084-2.064-1.091-2.961-0.003-0.146-0.063-0.285-0.039-0.438L15 56.43v3.101c0 0.5 0.181 0.979 0.286 1.444l1.774 16.25-2.088 21.344 8.164 0.813 2.165-21.731 0.011-0.785-0.36-3.913 1.645 5.489L27.594 100l8.195-0.383L34.76 77.57 34.59 76.585z" fill="#e8772e" data-fill-palette-color="accent"></path><path d="M29.892 27.154c3.062-2.981 3.128-7.881 0.136-10.95-2.985-3.051-7.885-3.121-10.946-0.132-3.069 2.992-3.128 7.892-0.143 10.95C21.923 30.087 26.827 30.149 29.892 27.154z" fill="#e8772e" data-fill-palette-color="accent"></path></g></g></svg></g></svg></g></svg></g><defs></defs></svg><rect width="395.52" height="79.23234444391365" fill="none" stroke="none" visibility="hidden"></rect></g></svg></g></svg>